<?xml version="1.0" standalone="no"?>
<!DOCTYPE svg PUBLIC "-//W3C//DTD SVG 20010904//EN"
 "http://www.w3.org/TR/2001/REC-SVG-20010904/DTD/svg10.dtd">
<svg version="1.0" xmlns="http://www.w3.org/2000/svg"
 width="1576.000000pt" height="789.000000pt" viewBox="0 0 1576.000000 789.000000"
 preserveAspectRatio="xMidYMid meet">

<g transform="translate(0.000000,789.000000) scale(0.100000,-0.100000)"
fill="#000000" stroke="none">
<path d="M10815 5954 c-90 -16 -219 -56 -280 -87 -429 -216 -502 -734 -141
-992 112 -79 214 -120 531 -210 165 -47 314 -90 330 -97 177 -66 197 -236 38
-315 -53 -25 -68 -28 -163 -28 -92 0 -112 3 -160 26 -105 49 -157 117 -175
227 l-7 42 -335 0 -336 0 7 -70 c37 -371 297 -623 720 -695 104 -18 368 -20
481 -4 183 25 372 100 480 189 155 129 245 320 245 519 0 160 -52 285 -164
397 -120 120 -207 157 -615 263 -254 67 -317 88 -382 130 -112 70 -97 199 29
248 71 27 211 24 279 -6 65 -29 118 -86 134 -143 6 -24 13 -49 15 -55 3 -10
76 -13 324 -13 l320 0 0 48 c0 72 -35 196 -77 271 -47 84 -148 186 -238 238
-89 53 -214 96 -334 117 -119 20 -411 20 -526 0z"/>
<path d="M1970 4855 l0 -1055 1060 0 1060 0 0 1055 0 1055 -1060 0 -1060 0 0
-1055z m1470 0 l0 -405 -405 0 -405 0 0 405 0 405 405 0 405 0 0 -405z"/>
<path d="M6210 4855 l0 -1055 653 0 c603 0 659 2 745 19 187 39 349 148 435
292 126 213 110 492 -38 657 -48 53 -145 121 -212 147 l-42 17 71 51 c137 98
190 203 190 377 0 244 -143 435 -387 518 l-80 27 -667 3 -668 3 0 -1056z
m1120 543 c60 -31 82 -75 78 -153 -4 -72 -29 -113 -85 -141 -33 -16 -67 -19
-255 -22 l-218 -3 0 170 0 171 218 0 c206 0 220 -1 262 -22z m66 -767 c135
-61 127 -263 -13 -332 -46 -23 -59 -24 -290 -27 l-243 -4 0 191 0 191 253 0
c224 0 257 -2 293 -19z"/>
<path d="M8410 4864 c-212 -575 -386 -1050 -388 -1055 -2 -5 138 -9 345 -9
l348 0 39 143 c21 78 43 150 48 160 8 16 32 17 331 15 l321 -3 50 -157 50
-158 349 0 349 0 -6 23 c-3 12 -176 486 -384 1052 l-379 1030 -344 2 -344 3
-385 -1046z m805 62 c52 -181 95 -333 95 -338 0 -4 -85 -8 -189 -8 l-189 0 84
333 c90 353 94 368 100 352 2 -5 46 -158 99 -339z"/>
<path d="M12160 4855 l0 -1055 325 0 325 0 0 325 0 325 435 0 435 0 0 265 0
265 -435 0 -435 0 0 185 0 185 488 2 487 3 3 278 2 277 -815 0 -815 0 0 -1055z"/>
<path d="M4740 4855 l0 -405 410 0 410 0 0 405 0 405 -410 0 -410 0 0 -405z"/>
<path d="M1980 2880 c0 -9 144 -575 221 -873 l10 -38 61 3 61 3 105 383 c58
210 108 382 111 382 3 0 53 -174 110 -386 l104 -385 61 3 61 3 117 435 c64
239 119 445 123 458 5 21 3 22 -53 22 l-58 0 -94 -386 c-63 -256 -97 -379
-102 -367 -4 10 -51 180 -103 378 -53 198 -99 363 -104 368 -4 4 -34 7 -66 5
l-58 -3 -100 -375 c-56 -206 -102 -377 -104 -379 -2 -2 -5 -2 -7 0 -2 2 -44
173 -93 379 l-88 375 -57 3 c-38 2 -58 -1 -58 -8z"/>
<path d="M8880 2430 l0 -460 50 0 50 0 0 208 c0 114 5 224 10 244 40 143 247
188 312 67 16 -30 18 -60 18 -276 l0 -243 50 0 50 0 0 253 c0 268 -5 308 -47
357 -43 51 -78 64 -173 64 -96 0 -148 -20 -194 -74 l-26 -32 0 176 0 176 -50
0 -50 0 0 -460z"/>
<path d="M11410 2826 l0 -66 50 0 51 0 -3 63 -3 62 -47 3 -48 3 0 -65z"/>
<path d="M6760 2730 l0 -100 -55 0 -55 0 0 -45 0 -45 55 0 55 0 0 -235 c0
-318 3 -324 152 -328 l83 -2 3 43 c3 41 2 42 -26 42 -58 0 -90 12 -101 36 -7
16 -11 102 -11 234 l0 210 70 0 70 0 0 45 0 44 -67 3 -68 3 -3 98 -3 97 -49 0
-50 0 0 -100z"/>
<path d="M12380 2730 l0 -100 -56 0 -55 0 3 -42 3 -43 52 -3 51 -3 4 -247 c4
-311 1 -305 158 -318 l80 -7 0 45 0 45 -51 6 c-28 4 -57 12 -65 18 -11 9 -14
56 -14 235 l0 224 65 0 65 0 0 45 0 45 -65 0 -65 0 0 100 0 100 -55 0 -55 0 0
-100z"/>
<path d="M3355 2641 c-90 -24 -159 -84 -204 -181 -23 -48 -26 -67 -25 -155 1
-113 22 -184 74 -247 42 -50 124 -89 204 -95 153 -13 269 58 306 187 l9 30
-52 0 c-51 -1 -52 -1 -72 -43 -51 -107 -234 -117 -318 -18 -26 32 -47 87 -47
129 l0 22 250 0 250 0 0 28 c0 140 -74 279 -176 327 -42 20 -151 29 -199 16z
m177 -116 c42 -28 95 -122 84 -150 -4 -12 -38 -15 -196 -15 -208 0 -198 -3
-180 62 34 122 184 174 292 103z"/>
<path d="M4393 2632 c-28 -10 -67 -31 -87 -46 -141 -107 -155 -415 -25 -545
57 -58 110 -76 219 -76 83 1 101 4 147 28 71 37 115 98 137 190 6 27 6 27 -48
27 -50 0 -54 -2 -61 -27 -20 -81 -88 -133 -175 -133 -123 0 -200 97 -200 250
0 167 95 273 232 257 64 -8 97 -30 123 -85 20 -41 21 -41 74 -42 l54 0 -7 33
c-12 61 -58 120 -117 150 -75 38 -189 46 -266 19z"/>
<path d="M5169 2636 c-49 -17 -88 -49 -121 -98 l-28 -41 0 66 0 67 -50 0 -50
0 0 -330 0 -330 49 0 49 0 4 198 c4 171 7 203 24 242 30 66 82 107 154 122
l60 12 0 53 c0 51 -1 53 -27 53 -16 -1 -44 -7 -64 -14z"/>
<path d="M5484 2632 c-73 -25 -126 -72 -165 -144 -33 -62 -34 -65 -34 -183 0
-101 4 -127 21 -166 48 -105 133 -165 245 -175 159 -15 282 59 314 189 7 27 7
27 -43 27 -45 0 -51 -3 -62 -29 -48 -116 -216 -137 -317 -39 -32 31 -45 59
-58 126 l-7 32 253 0 252 0 -6 76 c-17 224 -196 354 -393 286z m164 -87 c20
-9 48 -26 61 -38 28 -26 60 -92 61 -124 l0 -23 -190 0 -190 0 0 25 c0 39 24
87 61 121 57 53 128 67 197 39z"/>
<path d="M6188 2637 c-97 -28 -168 -104 -168 -180 0 -26 3 -27 48 -27 48 0 49
0 61 40 14 48 53 76 118 86 108 16 193 -27 193 -99 0 -68 -17 -77 -228 -116
-127 -24 -175 -52 -204 -118 -39 -89 -6 -198 73 -239 17 -8 61 -18 98 -21 85
-7 163 14 225 62 l46 35 0 -29 c0 -54 65 -84 138 -65 18 5 22 13 22 45 0 35
-3 39 -25 39 -14 0 -29 8 -35 19 -6 12 -10 107 -10 238 0 254 -5 271 -83 312
-58 29 -196 38 -269 18z m252 -392 c0 -74 -15 -110 -60 -149 -40 -33 -101 -49
-169 -44 -46 4 -59 10 -84 38 -25 28 -28 39 -24 72 6 46 37 83 81 97 17 6 73
17 125 25 51 8 96 17 99 20 3 3 11 6 19 6 9 0 13 -18 13 -65z"/>
<path d="M7285 2632 c-139 -48 -210 -162 -208 -332 2 -228 132 -355 344 -337
80 7 158 44 195 92 19 25 54 104 54 121 0 2 -22 4 -50 4 -47 0 -51 -2 -64 -33
-29 -72 -101 -105 -198 -94 -94 11 -158 77 -174 176 l-7 41 252 0 251 0 0 43
c0 104 -55 228 -127 283 -70 54 -176 68 -268 36z m163 -87 c20 -9 48 -26 61
-38 28 -26 60 -92 61 -124 l0 -23 -189 0 c-105 0 -192 3 -194 8 -3 4 2 28 9
54 32 108 150 165 252 123z"/>
<path d="M8358 2637 c-44 -13 -108 -53 -136 -87 -28 -33 -64 -123 -74 -187
-19 -127 21 -265 97 -331 50 -44 98 -63 180 -69 161 -13 278 69 310 215 l7 32
-55 0 c-55 0 -55 0 -61 -35 -9 -47 -59 -102 -104 -115 -87 -24 -157 -6 -209
53 -43 49 -58 99 -57 193 1 141 64 234 170 250 24 3 60 3 79 0 42 -8 98 -54
115 -96 12 -28 16 -30 66 -30 54 0 54 0 48 28 -8 35 -46 102 -71 124 -60 54
-211 81 -305 55z"/>
<path d="M9795 2641 c-89 -22 -158 -83 -202 -176 -25 -54 -28 -70 -27 -160 1
-162 51 -257 162 -312 50 -24 69 -28 147 -28 70 0 100 5 135 21 70 33 119 90
141 166 l8 28 -52 0 c-51 -1 -52 -1 -72 -43 -51 -107 -234 -117 -318 -18 -26
32 -47 87 -47 129 l0 22 251 0 252 0 -7 66 c-20 194 -135 316 -296 313 -25 -1
-58 -4 -75 -8z m170 -111 c40 -25 82 -90 87 -135 l3 -30 -192 -3 c-211 -3
-201 -6 -183 60 33 117 180 173 285 108z"/>
<path d="M10539 2641 c-42 -14 -72 -32 -106 -64 l-33 -31 0 42 0 42 -50 0 -50
0 0 -330 0 -330 50 0 50 0 0 218 c0 190 3 222 19 257 45 97 142 139 226 99 60
-28 65 -52 65 -328 l0 -246 50 0 50 0 0 213 c0 124 5 229 11 252 17 60 74 112
133 120 62 10 121 -8 144 -42 15 -23 18 -62 22 -283 l5 -255 50 0 50 0 0 276
0 276 -27 40 c-38 58 -85 78 -183 78 -91 0 -143 -21 -189 -76 -15 -17 -28 -30
-29 -28 -29 53 -42 67 -72 83 -40 20 -145 30 -186 17z"/>
<path d="M11827 2640 c-85 -22 -156 -85 -159 -143 -6 -138 33 -175 239 -225
67 -17 136 -40 153 -52 53 -37 52 -103 -2 -143 -20 -15 -47 -21 -105 -24 -101
-6 -158 20 -188 85 -19 41 -21 42 -68 42 l-49 0 7 -37 c20 -110 101 -171 242
-180 88 -6 186 14 234 47 55 40 74 79 74 150 0 114 -44 151 -232 196 -168 41
-217 76 -193 138 36 97 252 81 291 -21 7 -20 15 -23 60 -23 l51 0 -7 33 c-22
103 -97 156 -232 163 -43 2 -95 -1 -116 -6z"/>
<path d="M13022 2629 c-33 -10 -104 -72 -134 -119 -17 -24 -17 -23 -17 48 l-1
72 -45 0 -45 0 0 -330 0 -330 50 0 50 0 0 178 c0 201 11 260 61 316 31 36 101
66 151 66 27 0 28 1 28 55 l0 55 -32 -1 c-18 0 -48 -5 -66 -10z"/>
<path d="M11410 2299 l0 -330 48 3 47 3 3 328 2 327 -50 0 -50 0 0 -331z"/>
<path d="M13302 2304 l130 -327 -27 -68 c-35 -90 -63 -113 -127 -105 l-48 5 0
-43 c0 -50 8 -56 77 -56 59 0 105 23 137 68 20 29 298 728 330 830 7 21 5 22
-46 22 l-54 0 -44 -127 c-102 -301 -143 -414 -146 -410 -2 2 -42 111 -89 243
-47 131 -90 251 -96 267 -11 25 -16 27 -69 27 l-58 0 130 -326z"/>
</g>
</svg>
